<?xml version="1.0" encoding="UTF-8" standalone="no"?>
<!-- Created with Inkscape (http://www.inkscape.org/) -->

<svg
   xmlns:dc="http://purl.org/dc/elements/1.1/"
   xmlns:cc="http://creativecommons.org/ns#"
   xmlns:rdf="http://www.w3.org/1999/02/22-rdf-syntax-ns#"
   xmlns:svg="http://www.w3.org/2000/svg"
   xmlns="http://www.w3.org/2000/svg"
   xmlns:sodipodi="http://sodipodi.sourceforge.net/DTD/sodipodi-0.dtd"
   xmlns:inkscape="http://www.inkscape.org/namespaces/inkscape"
   width="210mm"
   height="297mm"
   viewBox="0 0 210 297"
   version="1.1"
   id="svg1600"
   inkscape:version="0.92.4 (5da689c313, 2019-01-14)"
   sodipodi:docname="NLS_POLO_LOGO.svg">
  <defs
     id="defs1594">
    <inkscape:path-effect
       effect="spiro"
       id="path-effect4626-3-4"
       is_visible="true" />
  </defs>
  <sodipodi:namedview
     id="base"
     pagecolor="#ffffff"
     bordercolor="#666666"
     borderopacity="1.0"
     inkscape:pageopacity="0.0"
     inkscape:pageshadow="2"
     inkscape:zoom="0.98994949"
     inkscape:cx="425.72383"
     inkscape:cy="600.91693"
     inkscape:document-units="mm"
     inkscape:current-layer="layer1"
     showgrid="false"
     inkscape:window-width="3200"
     inkscape:window-height="1721"
     inkscape:window-x="-9"
     inkscape:window-y="-9"
     inkscape:window-maximized="1" />
  <metadata
     id="metadata1597">
    <rdf:RDF>
      <cc:Work
         rdf:about="">
        <dc:format>image/svg+xml</dc:format>
        <dc:type
           rdf:resource="http://purl.org/dc/dcmitype/StillImage" />
        <dc:title></dc:title>
      </cc:Work>
    </rdf:RDF>
  </metadata>
  <g
     inkscape:label="Layer 1"
     inkscape:groupmode="layer"
     id="layer1">
    <path
       sodipodi:nodetypes="cssc"
       transform="matrix(1.3408149,-1.1739716,1.1031371,1.3891588,-80.413858,171.6818)"
       inkscape:original-d="m 100.0875,37.327253 c 21.91725,-7.427144 6.19269,-24.269986 13.3241,-16.92735 24.16616,24.881937 -1.7781,-2.134536 -3.31899,26.384279 -0.47681,8.824734 -5.43441,-9.588853 13.68958,-16.870145"
       inkscape:path-effect="#path-effect4626-3-4"
       inkscape:connector-curvature="0"
       id="path4624-2-2"
       d="m 100.0875,37.327253 c -2.74621,0.158111 -5.534101,-0.492842 -7.926333,-1.850743 -2.392232,-1.357902 -4.380295,-3.417922 -5.652319,-5.856901 -1.272024,-2.43898 -1.823485,-5.248245 -1.567873,-7.987101 0.255611,-2.738856 1.317385,-5.397561 3.01876,-7.559041 1.701375,-2.161479 4.036298,-3.818044 6.638488,-4.7098273 2.60219,-0.8917832 5.462387,-1.0156124 8.131917,-0.3520624 2.66953,0.66355 5.13888,2.1121187 7.0207,4.1184677 1.88182,2.006349 3.1694,4.563342 3.66076,7.269858 0.79959,4.404278 -0.48106,8.889738 -1.72738,13.189002 -1.24633,4.299265 -2.48102,8.808255 -1.59161,13.195277 0.52663,2.597626 1.80507,5.038311 3.64061,6.950327 1.83554,1.912016 4.22203,3.288968 6.79601,3.921142 2.57398,0.632173 5.32683,0.517452 7.83928,-0.326691 2.51246,-0.844142 4.77611,-2.414882 6.4462,-4.47299 1.67009,-2.058108 2.74102,-4.596699 3.0497,-7.229136 0.30868,-2.632436 -0.14594,-5.349912 -1.2946,-7.738545 -1.14867,-2.388633 -2.98755,-4.440433 -5.23656,-5.842902 -2.24902,-1.402469 -4.90066,-2.150916 -7.55106,-2.13135"
       style="fill:none;stroke:#2abc00;stroke-width:9.06499958;stroke-linecap:butt;stroke-linejoin:miter;stroke-miterlimit:4;stroke-dasharray:none;stroke-opacity:1" />
  </g>
</svg>
