<?xml version="1.0" encoding="UTF-8" standalone="no"?>
<!-- Created with Inkscape (http://www.inkscape.org/) -->

<svg
   xmlns:dc="http://purl.org/dc/elements/1.1/"
   xmlns:cc="http://creativecommons.org/ns#"
   xmlns:rdf="http://www.w3.org/1999/02/22-rdf-syntax-ns#"
   xmlns:svg="http://www.w3.org/2000/svg"
   xmlns="http://www.w3.org/2000/svg"
   xmlns:sodipodi="http://sodipodi.sourceforge.net/DTD/sodipodi-0.dtd"
   xmlns:inkscape="http://www.inkscape.org/namespaces/inkscape"
   sodipodi:docname="NLS_Logo_2020.svg"
   inkscape:version="0.92.4 (5da689c313, 2019-01-14)"
   id="svg8"
   version="1.1"
   viewBox="0 0 210 100"
   height="100mm"
   width="210mm">
  <defs
     id="defs2">
    <inkscape:path-effect
       effect="spiro"
       id="path-effect4626"
       is_visible="true" />
    <inkscape:path-effect
       effect="spiro"
       id="path-effect4586"
       is_visible="true" />
    <inkscape:path-effect
       effect="bspline"
       id="path-effect3775"
       is_visible="true"
       weight="33.333333"
       steps="2"
       helper_size="0"
       apply_no_weight="true"
       apply_with_weight="true"
       only_selected="false" />
    <inkscape:path-effect
       effect="spiro"
       id="path-effect4586-8"
       is_visible="true" />
    <inkscape:path-effect
       effect="spiro"
       id="path-effect4586-4"
       is_visible="true" />
    <inkscape:path-effect
       effect="spiro"
       id="path-effect4626-3"
       is_visible="true" />
    <inkscape:path-effect
       effect="spiro"
       id="path-effect4626-3-4"
       is_visible="true" />
    <inkscape:path-effect
       effect="spiro"
       id="path-effect4626-3-4-7"
       is_visible="true" />
    <inkscape:path-effect
       effect="spiro"
       id="path-effect4626-3-4-7-1"
       is_visible="true" />
    <inkscape:path-effect
       effect="spiro"
       id="path-effect4626-3-4-4"
       is_visible="true" />
  </defs>
  <sodipodi:namedview
     id="base"
     pagecolor="#ffffff"
     bordercolor="#666666"
     borderopacity="1.0"
     inkscape:pageopacity="0.0"
     inkscape:pageshadow="2"
     inkscape:zoom="1.4"
     inkscape:cx="397.64666"
     inkscape:cy="193.6371"
     inkscape:document-units="mm"
     inkscape:current-layer="g887"
     showgrid="false"
     inkscape:window-width="1920"
     inkscape:window-height="1001"
     inkscape:window-x="2551"
     inkscape:window-y="164"
     inkscape:window-maximized="1" />
  <metadata
     id="metadata5">
    <rdf:RDF>
      <cc:Work
         rdf:about="">
        <dc:format>image/svg+xml</dc:format>
        <dc:type
           rdf:resource="http://purl.org/dc/dcmitype/StillImage" />
        <dc:title />
      </cc:Work>
    </rdf:RDF>
  </metadata>
  <g
     inkscape:label="Layer 1"
     inkscape:groupmode="layer"
     id="layer1"
     transform="translate(0,-197)">
    <flowRoot
       xml:space="preserve"
       id="flowRoot3713"
       style="font-style:normal;font-weight:normal;font-size:40px;line-height:1.25;font-family:sans-serif;letter-spacing:0px;word-spacing:0px;fill:#000000;fill-opacity:1;stroke:none"
       transform="matrix(0.20584108,0,0,0.26458333,4.6933484,4.819196)"><flowRegion
         id="flowRegion3715"><rect
           id="rect3717"
           width="818.07806"
           height="149.64284"
           x="102.5"
           y="84.305397" /></flowRegion><flowPara
         style="font-style:normal;font-variant:normal;font-weight:bold;font-stretch:normal;font-size:85.33333588px;font-family:Dubai;-inkscape-font-specification:'Dubai Bold'"
         id="flowPara3731" /></flowRoot>    <g
       id="g4855">
      <g
         id="g875">
        <g
           inkscape:groupmode="layer"
           id="layer2"
           inkscape:label="Background" />
        <g
           id="g887"
           transform="matrix(2.0263046,0,0,2.0263046,-51.345731,168.47489)">
          <g
             id="g948">
            <g
               id="flowRoot3735-3-0"
               style="font-style:normal;font-weight:normal;font-size:40px;line-height:1.25;font-family:sans-serif;letter-spacing:0px;word-spacing:0px;fill:#000000;fill-opacity:1;stroke:none"
               transform="matrix(0.26458333,0,0,0.26458333,3.5242386,-57.016406)"
               aria-label="nonlinear">
              <path
                 id="path889"
                 style="font-style:normal;font-variant:normal;font-weight:bold;font-stretch:normal;font-family:sans-serif;-inkscape-font-specification:sans-serif;fill:#000000"
                 d="m 146.42383,363.65532 h -7.07031 v -10.8789 q 0,-1.32813 -0.13672,-2.63672 -0.13672,-1.32813 -0.46875,-1.95313 -0.39063,-0.72265 -1.15235,-1.05469 -0.74218,-0.33203 -2.08984,-0.33203 -0.95703,0 -1.95313,0.3125 -0.97656,0.3125 -2.1289,0.9961 v 15.54687 h -7.03125 v -21.93359 h 7.03125 v 2.42187 q 1.875,-1.46484 3.59375,-2.24609 1.73828,-0.78125 3.84765,-0.78125 3.55469,0 5.54688,2.07031 2.01172,2.07031 2.01172,6.19141 z" />
              <path
                 id="path891"
                 style="font-style:normal;font-variant:normal;font-weight:bold;font-stretch:normal;font-family:sans-serif;-inkscape-font-specification:sans-serif;fill:#000000"
                 d="m 175.33008,352.69829 q 0,5.41016 -3.16406,8.53516 -3.14454,3.10547 -8.84766,3.10547 -5.70313,0 -8.86719,-3.10547 -3.14453,-3.125 -3.14453,-8.53516 0,-5.44922 3.16406,-8.55469 3.1836,-3.10547 8.84766,-3.10547 5.74219,0 8.86719,3.125 3.14453,3.125 3.14453,8.53516 z m -8.65235,5.33203 q 0.6836,-0.83984 1.01563,-2.01172 0.35156,-1.1914 0.35156,-3.28125 0,-1.93359 -0.35156,-3.24218 -0.35156,-1.3086 -0.97656,-2.08985 -0.625,-0.80078 -1.50391,-1.13281 -0.87891,-0.33203 -1.89453,-0.33203 -1.01563,0 -1.81641,0.27344 -0.78125,0.27343 -1.5039,1.09375 -0.64453,0.76171 -1.03516,2.08984 -0.37109,1.32812 -0.37109,3.33984 0,1.79688 0.33203,3.125 0.33203,1.3086 0.97656,2.10938 0.625,0.76172 1.48438,1.11328 0.8789,0.35156 1.99218,0.35156 0.95703,0 1.81641,-0.3125 0.87891,-0.33203 1.48437,-1.09375 z" />
              <path
                 id="path893"
                 style="font-style:normal;font-variant:normal;font-weight:bold;font-stretch:normal;font-family:sans-serif;-inkscape-font-specification:sans-serif;fill:#000000"
                 d="m 202.43945,363.65532 h -7.07031 v -10.8789 q 0,-1.32813 -0.13672,-2.63672 -0.13672,-1.32813 -0.46875,-1.95313 -0.39062,-0.72265 -1.15234,-1.05469 -0.74219,-0.33203 -2.08985,-0.33203 -0.95703,0 -1.95312,0.3125 -0.97656,0.3125 -2.12891,0.9961 v 15.54687 h -7.03125 v -21.93359 h 7.03125 v 2.42187 q 1.875,-1.46484 3.59375,-2.24609 1.73828,-0.78125 3.84766,-0.78125 3.55469,0 5.54687,2.07031 2.01172,2.07031 2.01172,6.19141 z" />
              <path
                 id="path895"
                 style="font-style:normal;font-variant:normal;font-weight:bold;font-stretch:normal;font-family:sans-serif;-inkscape-font-specification:'sans-serif Bold';fill:#000000"
                 d="m 215.95508,363.65532 h -7.03125 V 333.2647 h 7.03125 z" />
              <path
                 id="path897"
                 style="font-style:normal;font-variant:normal;font-weight:bold;font-stretch:normal;font-family:sans-serif;-inkscape-font-specification:'sans-serif Bold';fill:#000000"
                 d="m 229.62695,363.65532 h -7.03125 v -21.93359 h 7.03125 z m 0.19532,-25.05859 h -7.42188 v -5.33203 h 7.42188 z" />
              <path
                 id="path899"
                 style="font-style:normal;font-variant:normal;font-weight:bold;font-stretch:normal;font-family:sans-serif;-inkscape-font-specification:'sans-serif Bold';fill:#000000"
                 d="m 258.29883,363.65532 h -7.07031 v -10.8789 q 0,-1.32813 -0.13672,-2.63672 -0.13672,-1.32813 -0.46875,-1.95313 -0.39063,-0.72265 -1.15235,-1.05469 -0.74218,-0.33203 -2.08984,-0.33203 -0.95703,0 -1.95313,0.3125 -0.97656,0.3125 -2.1289,0.9961 v 15.54687 h -7.03125 v -21.93359 h 7.03125 v 2.42187 q 1.875,-1.46484 3.59375,-2.24609 1.73828,-0.78125 3.84765,-0.78125 3.55469,0 5.54688,2.07031 2.01172,2.07031 2.01172,6.19141 z" />
              <path
                 id="path901"
                 style="font-style:normal;font-variant:normal;font-weight:bold;font-stretch:normal;font-family:sans-serif;-inkscape-font-specification:'sans-serif Bold';fill:#000000"
                 d="m 286.38477,353.98735 h -16.09375 q 0.15625,2.57813 1.95312,3.94532 1.81641,1.36718 5.33203,1.36718 2.22656,0 4.31641,-0.80078 2.08984,-0.80078 3.30078,-1.71875 h 0.78125 v 5.64453 q -2.38281,0.95703 -4.49219,1.38672 -2.10937,0.42969 -4.66797,0.42969 -6.60156,0 -10.11718,-2.96875 -3.51563,-2.96875 -3.51563,-8.45703 0,-5.42969 3.32031,-8.59375 3.33985,-3.1836 9.14063,-3.1836 5.35156,0 8.04687,2.71485 2.69532,2.69531 2.69532,7.77344 z m -6.99219,-4.12109 q -0.0586,-2.20703 -1.09375,-3.32031 -1.03516,-1.11328 -3.22266,-1.11328 -2.03125,0 -3.33984,1.05468 -1.3086,1.05469 -1.46485,3.37891 z" />
              <path
                 id="path903"
                 style="font-style:normal;font-variant:normal;font-weight:bold;font-stretch:normal;font-family:sans-serif;-inkscape-font-specification:'sans-serif Bold';fill:#000000"
                 d="m 304.62695,357.93267 v -4.57032 q -1.42578,0.11719 -3.08593,0.33203 -1.66016,0.19532 -2.51954,0.46875 -1.05468,0.33204 -1.62109,0.97657 -0.54687,0.625 -0.54687,1.66015 0,0.6836 0.11718,1.11328 0.11719,0.42969 0.58594,0.82032 0.44922,0.39062 1.07422,0.58593 0.625,0.17579 1.95312,0.17579 1.05469,0 2.12891,-0.42969 1.09375,-0.42969 1.91406,-1.13281 z m 0,3.39843 q -0.5664,0.42969 -1.40625,1.03516 -0.83984,0.60547 -1.58203,0.95703 -1.03515,0.46875 -2.14844,0.68359 -1.11328,0.23438 -2.4414,0.23438 -3.125,0 -5.23438,-1.93359 -2.10937,-1.9336 -2.10937,-4.94141 0,-2.40234 1.07422,-3.92578 1.07422,-1.52344 3.04687,-2.40235 1.95313,-0.8789 4.84375,-1.25 2.89063,-0.37109 5.9961,-0.54687 v -0.11719 q 0,-1.8164 -1.48438,-2.5 -1.48437,-0.70312 -4.375,-0.70312 -1.73828,0 -3.71094,0.625 -1.97265,0.60547 -2.83203,0.9375 h -0.64453 v -5.29297 q 1.11328,-0.29297 3.61328,-0.6836 2.51953,-0.41015 5.03906,-0.41015 5.9961,0 8.65235,1.85547 2.67578,1.83593 2.67578,5.78125 v 14.92187 h -6.97266 z" />
              <path
                 id="path905"
                 style="font-style:normal;font-variant:normal;font-weight:bold;font-stretch:normal;font-family:sans-serif;-inkscape-font-specification:'sans-serif Bold';fill:#000000"
                 d="m 333.96289,348.42095 h -0.625 q -0.44922,-0.15625 -1.44531,-0.23438 -0.9961,-0.0781 -1.66016,-0.0781 -1.5039,0 -2.65625,0.19531 -1.15234,0.19531 -2.48047,0.66406 v 14.6875 h -7.03125 v -21.93359 h 7.03125 v 3.22265 q 2.32422,-1.99218 4.04297,-2.63671 1.71875,-0.66407 3.16406,-0.66407 0.3711,0 0.83985,0.0195 0.46875,0.0195 0.82031,0.0586 z" />
            </g>
            <g
               id="flowRoot3735-2-2-6"
               style="font-style:normal;font-weight:normal;font-size:40px;line-height:1.25;font-family:sans-serif;letter-spacing:0px;word-spacing:0px;fill:#000000;fill-opacity:1;stroke:none"
               transform="matrix(0.26458333,0,0,0.26458333,40.652874,-52.897877)"
               aria-label="solutions">
              <path
                 id="path908"
                 style="font-style:italic;font-variant:normal;font-weight:normal;font-stretch:normal;font-size:16px;font-family:sans-serif;-inkscape-font-specification:'sans-serif Italic';fill:#000000"
                 d="m 124.23633,363.86626 q -0.97656,0 -1.75,-0.24219 -0.76563,-0.24219 -1.28125,-0.52344 l 0.32812,-1.57031 h 0.0781 q 0.16406,0.14063 0.42187,0.33594 0.26563,0.1875 0.67188,0.375 0.36719,0.17969 0.83594,0.3125 0.47656,0.125 1.01562,0.125 1.10156,0 1.72656,-0.40625 0.625,-0.40625 0.625,-1.19531 0,-0.41407 -0.32031,-0.63282 -0.32031,-0.22656 -0.92187,-0.36718 -0.30469,-0.0703 -0.73438,-0.15625 -0.42187,-0.0859 -0.85937,-0.20313 -0.91407,-0.25781 -1.35157,-0.74219 -0.4375,-0.49218 -0.4375,-1.19531 0,-0.60937 0.26563,-1.14062 0.26562,-0.53125 0.78906,-0.97657 0.5,-0.42187 1.27344,-0.67968 0.77344,-0.26563 1.71875,-0.26563 0.78125,0 1.55469,0.19531 0.78125,0.19532 1.27343,0.48438 l -0.3125,1.5 h -0.0781 q -0.125,-0.10156 -0.38281,-0.27344 -0.25,-0.17187 -0.64063,-0.35156 -0.33594,-0.14844 -0.78906,-0.25781 -0.44531,-0.10938 -0.92969,-0.10938 -0.97656,0 -1.58594,0.41406 -0.60937,0.40625 -0.60937,1.11719 0,0.39063 0.29687,0.65625 0.29688,0.25781 0.90625,0.40625 0.38282,0.0937 0.79688,0.17969 0.42187,0.0781 0.8125,0.17187 0.90625,0.22657 1.35937,0.70313 0.46094,0.47656 0.46094,1.19531 0,0.60156 -0.28906,1.17969 -0.28125,0.57031 -0.82031,0.99219 -0.55469,0.44531 -1.34375,0.69531 -0.78907,0.25 -1.77344,0.25 z" />
              <path
                 id="path910"
                 style="font-style:italic;font-variant:normal;font-weight:normal;font-stretch:normal;font-size:16px;font-family:sans-serif;-inkscape-font-specification:'sans-serif Italic';fill:#000000"
                 d="m 138.43164,358.0147 q 0,1.17187 -0.35937,2.25 -0.35938,1.07812 -1.01563,1.875 -0.67969,0.82812 -1.57031,1.29687 -0.89063,0.46094 -2.07813,0.46094 -1.55468,0 -2.42968,-0.88281 -0.86719,-0.89063 -0.86719,-2.45313 0,-1.17187 0.35156,-2.23437 0.35938,-1.0625 1.03125,-1.89063 0.64844,-0.79687 1.58594,-1.27344 0.94531,-0.47656 2.0625,-0.47656 1.50781,0 2.39844,0.85938 0.89062,0.85937 0.89062,2.46875 z m -2.39062,3.29687 q 0.42187,-0.625 0.64062,-1.44531 0.22656,-0.82031 0.22656,-1.73438 0,-1.09375 -0.52343,-1.65625 -0.52344,-0.5625 -1.47657,-0.5625 -0.75781,0 -1.35937,0.36719 -0.60156,0.35938 -1.03906,0.99219 -0.42188,0.61719 -0.64844,1.44531 -0.22656,0.82813 -0.22656,1.71875 0,1.07813 0.52343,1.65625 0.52344,0.57813 1.48438,0.57813 0.75,0 1.35937,-0.35938 0.60938,-0.35937 1.03907,-1 z" />
              <path
                 id="path912"
                 style="font-style:italic;font-variant:normal;font-weight:normal;font-stretch:normal;font-size:16px;font-family:sans-serif;-inkscape-font-specification:'sans-serif Italic';fill:#000000"
                 d="m 143.86914,351.49907 -2.8125,12.15625 h -1.46875 l 2.8125,-12.15625 z" />
              <path
                 id="path914"
                 style="font-style:italic;font-variant:normal;font-weight:normal;font-stretch:normal;font-size:16px;font-family:sans-serif;-inkscape-font-specification:'sans-serif Italic';fill:#000000"
                 d="m 153.22852,354.92876 -2.01563,8.72656 h -1.46875 l 0.22656,-0.96875 q -0.83593,0.57031 -1.5625,0.89063 -0.71875,0.32031 -1.52343,0.32031 -1.125,0 -1.75782,-0.5625 -0.63281,-0.57031 -0.63281,-1.65625 0,-0.26563 0.0312,-0.51563 0.0391,-0.25 0.10156,-0.57031 l 1.30469,-5.66406 h 1.46875 l -1.14844,4.96875 q -0.0703,0.30469 -0.13281,0.69531 -0.0625,0.39063 -0.0625,0.61719 0,0.67187 0.33594,1.00781 0.34375,0.33594 1.16406,0.33594 0.57813,0 1.32031,-0.33594 0.75,-0.33594 1.38282,-0.77344 l 1.5,-6.51562 z" />
              <path
                 id="path916"
                 style="font-style:italic;font-variant:normal;font-weight:normal;font-stretch:normal;font-size:16px;font-family:sans-serif;-inkscape-font-specification:'sans-serif Italic';fill:#000000"
                 d="m 160.65039,354.92876 -0.26562,1.1875 h -3.03125 l -0.9375,4.02344 q -0.0781,0.30468 -0.14063,0.70312 -0.0625,0.39063 -0.0625,0.625 0,0.57031 0.28906,0.85156 0.28907,0.27344 1.07032,0.27344 0.32031,0 0.75781,-0.10937 0.44531,-0.10938 0.60156,-0.17188 h 0.0781 l -0.27344,1.26563 q -0.4375,0.10937 -0.9375,0.17968 -0.49219,0.0703 -0.875,0.0703 -1.07813,0 -1.67188,-0.46875 -0.58593,-0.47657 -0.58593,-1.5 0,-0.25 0.0312,-0.49219 0.0391,-0.25 0.10156,-0.5625 l 1.08594,-4.6875 h -0.99219 l 0.26562,-1.1875 h 0.99219 l 0.58594,-2.50781 h 1.46875 l -0.58594,2.50781 z" />
              <path
                 id="path918"
                 style="font-style:italic;font-variant:normal;font-weight:normal;font-stretch:normal;font-size:16px;font-family:sans-serif;-inkscape-font-specification:'sans-serif Italic';fill:#000000"
                 d="m 164.69727,351.94438 -0.35157,1.52344 h -1.65625 l 0.35157,-1.52344 z m -0.78125,2.98438 -2.01563,8.72656 h -1.46875 l 2.01563,-8.72656 z" />
              <path
                 id="path920"
                 style="font-style:italic;font-variant:normal;font-weight:normal;font-stretch:normal;font-size:16px;font-family:sans-serif;-inkscape-font-specification:'sans-serif Italic';fill:#000000"
                 d="m 173.40039,358.0147 q 0,1.17187 -0.35937,2.25 -0.35938,1.07812 -1.01563,1.875 -0.67969,0.82812 -1.57031,1.29687 -0.89063,0.46094 -2.07813,0.46094 -1.55468,0 -2.42968,-0.88281 -0.86719,-0.89063 -0.86719,-2.45313 0,-1.17187 0.35156,-2.23437 0.35938,-1.0625 1.03125,-1.89063 0.64844,-0.79687 1.58594,-1.27344 0.94531,-0.47656 2.0625,-0.47656 1.50781,0 2.39844,0.85938 0.89062,0.85937 0.89062,2.46875 z m -2.39062,3.29687 q 0.42187,-0.625 0.64062,-1.44531 0.22656,-0.82031 0.22656,-1.73438 0,-1.09375 -0.52343,-1.65625 -0.52344,-0.5625 -1.47657,-0.5625 -0.75781,0 -1.35937,0.36719 -0.60156,0.35938 -1.03906,0.99219 -0.42188,0.61719 -0.64844,1.44531 -0.22656,0.82813 -0.22656,1.71875 0,1.07813 0.52343,1.65625 0.52344,0.57813 1.48438,0.57813 0.75,0 1.35937,-0.35938 0.60938,-0.35937 1.03907,-1 z" />
              <path
                 id="path922"
                 style="font-style:italic;font-variant:normal;font-weight:normal;font-stretch:normal;font-size:16px;font-family:sans-serif;-inkscape-font-specification:'sans-serif Italic';fill:#000000"
                 d="m 183.2832,356.92095 q 0,0.1875 -0.0391,0.50781 -0.0312,0.32031 -0.0937,0.5625 l -1.3125,5.66406 h -1.46875 l 1.14844,-4.96875 q 0.0937,-0.41406 0.14062,-0.71875 0.0547,-0.3125 0.0547,-0.61719 0,-0.65625 -0.32812,-0.98437 -0.32032,-0.33594 -1.16407,-0.33594 -0.59375,0 -1.3125,0.32813 -0.71093,0.32812 -1.39062,0.78125 l -1.50781,6.51562 h -1.46875 l 2.01562,-8.72656 h 1.46875 l -0.22656,0.96875 q 0.83594,-0.58594 1.5625,-0.89844 0.73437,-0.3125 1.50781,-0.3125 1.14063,0 1.77344,0.57813 0.64062,0.57031 0.64062,1.65625 z" />
              <path
                 id="path924"
                 style="font-style:italic;font-variant:normal;font-weight:normal;font-stretch:normal;font-size:16px;font-family:sans-serif;-inkscape-font-specification:'sans-serif Italic';fill:#000000"
                 d="m 187.39258,363.86626 q -0.97656,0 -1.75,-0.24219 -0.76563,-0.24219 -1.28125,-0.52344 l 0.32812,-1.57031 h 0.0781 q 0.16406,0.14063 0.42187,0.33594 0.26563,0.1875 0.67188,0.375 0.36719,0.17969 0.83594,0.3125 0.47656,0.125 1.01562,0.125 1.10156,0 1.72656,-0.40625 0.625,-0.40625 0.625,-1.19531 0,-0.41407 -0.32031,-0.63282 -0.32031,-0.22656 -0.92187,-0.36718 -0.30469,-0.0703 -0.73438,-0.15625 -0.42187,-0.0859 -0.85937,-0.20313 -0.91407,-0.25781 -1.35157,-0.74219 -0.4375,-0.49218 -0.4375,-1.19531 0,-0.60937 0.26563,-1.14062 0.26562,-0.53125 0.78906,-0.97657 0.5,-0.42187 1.27344,-0.67968 0.77344,-0.26563 1.71875,-0.26563 0.78125,0 1.55469,0.19531 0.78125,0.19532 1.27343,0.48438 l -0.3125,1.5 h -0.0781 q -0.125,-0.10156 -0.38281,-0.27344 -0.25,-0.17187 -0.64063,-0.35156 -0.33594,-0.14844 -0.78906,-0.25781 -0.44531,-0.10938 -0.92969,-0.10938 -0.97656,0 -1.58594,0.41406 -0.60937,0.40625 -0.60937,1.11719 0,0.39063 0.29687,0.65625 0.29688,0.25781 0.90625,0.40625 0.38282,0.0937 0.79688,0.17969 0.42187,0.0781 0.8125,0.17187 0.90625,0.22657 1.35937,0.70313 0.46094,0.47656 0.46094,1.19531 0,0.60156 -0.28906,1.17969 -0.28125,0.57031 -0.82031,0.99219 -0.55469,0.44531 -1.34375,0.69531 -0.78907,0.25 -1.77344,0.25 z" />
            </g>
            <path
               style="fill:none;stroke:#2abc00;stroke-width:9.06499958;stroke-linecap:butt;stroke-linejoin:miter;stroke-miterlimit:4;stroke-dasharray:none;stroke-opacity:1"
               d="m 100.0875,37.327253 c -2.74621,0.158111 -5.534101,-0.492842 -7.926333,-1.850743 -2.392232,-1.357902 -4.380295,-3.417922 -5.652319,-5.856901 -1.272024,-2.43898 -1.823485,-5.248245 -1.567873,-7.987101 0.255611,-2.738856 1.317385,-5.397561 3.01876,-7.559041 1.701375,-2.161479 4.036298,-3.818044 6.638488,-4.7098273 2.60219,-0.8917832 5.462387,-1.0156124 8.131917,-0.3520624 2.66953,0.66355 5.13888,2.1121187 7.0207,4.1184677 1.88182,2.006349 3.1694,4.563342 3.66076,7.269858 0.79959,4.404278 -0.48106,8.889738 -1.72738,13.189002 -1.24633,4.299265 -2.48102,8.808255 -1.59161,13.195277 0.52663,2.597626 1.80507,5.038311 3.64061,6.950327 1.83554,1.912016 4.22203,3.288968 6.79601,3.921142 2.57398,0.632173 5.32683,0.517452 7.83928,-0.326691 2.51246,-0.844142 4.77611,-2.414882 6.4462,-4.47299 1.67009,-2.058108 2.74102,-4.596699 3.0497,-7.229136 0.30868,-2.632436 -0.14594,-5.349912 -1.2946,-7.738545 -1.14867,-2.388633 -2.98755,-4.440433 -5.23656,-5.842902 -2.24902,-1.402469 -4.90066,-2.150916 -7.55106,-2.13135"
               id="path4624-2-2"
               inkscape:connector-curvature="0"
               inkscape:path-effect="#path-effect4626-3-4"
               inkscape:original-d="m 100.0875,37.327253 c 21.91725,-7.427144 6.19269,-24.269986 13.3241,-16.92735 24.16616,24.881937 -1.7781,-2.134536 -3.31899,26.384279 -0.47681,8.824734 -5.43441,-9.588853 13.68958,-16.870145"
               transform="matrix(0.26071844,-0.22827614,0.21450252,0.2701188,69.772214,53.971914)"
               sodipodi:nodetypes="cssc" />
          </g>
          <flowRoot
             xml:space="preserve"
             id="flowRoot965"
             style="font-style:normal;font-weight:normal;font-size:40px;line-height:1.25;font-family:sans-serif;letter-spacing:0px;word-spacing:0px;fill:#000000;fill-opacity:1;stroke:none"><flowRegion
               id="flowRegion967"><rect
                 id="rect969"
                 width="697.00525"
                 height="326.27927"
                 x="56.568542"
                 y="553.80383" /></flowRegion><flowPara
               id="flowPara971" /></flowRoot>        </g>
      </g>
    </g>
  </g>
</svg>
